<svg xmlns="http://www.w3.org/2000/svg" width="275" height="37.96" viewBox="0 0 275 37.96"><path d="M254.42,13.24a10.33,10.33,0,0,0-2.8-4,11.35,11.35,0,0,0-4.32-2.29,20.26,20.26,0,0,0-5.53-.7c-.94,0-2.09,0-3.41.13a30.78,30.78,0,0,0-3.83.5l-.27,0,.07,24.47.27.06a28.68,28.68,0,0,0,3.75.51c1.23.07,2.31.11,3.23.11h.09a19.35,19.35,0,0,0,5.69-.81,11.62,11.62,0,0,0,4.34-2.42,10.67,10.67,0,0,0,2.75-4.07,15.29,15.29,0,0,0,1-5.69A15.7,15.7,0,0,0,254.42,13.24Zm-5.11,5.85a7.94,7.94,0,0,1-1.8,5.55c-1.19,1.32-3.07,2-5.58,2h-1.15l-.54,0,0-14.92.75,0,1.1,0h0c2.49,0,4.33.63,5.47,1.86A8.08,8.08,0,0,1,249.31,19.09Z" style="fill:#3b7759"/><polygon points="274.99 26.33 263.71 26.36 263.69 21.12 273.02 21.09 273 15.88 263.68 15.91 263.66 11.76 274.17 11.73 274.15 6.42 257.73 6.46 257.8 31.7 275 31.64 274.99 26.33" style="fill:#3b7759"/><path d="M61.31,25.49l-.35.17-1,.46a6.92,6.92,0,0,1-1.2.43,15,15,0,0,1-1.59.34,13.39,13.39,0,0,1-2,.14,6.58,6.58,0,0,1-3-.58,5.22,5.22,0,0,1-2-1.59,6.5,6.5,0,0,1-1.11-2.42,13.43,13.43,0,0,1-.35-3.12,10.35,10.35,0,0,1,.51-3.52,6.72,6.72,0,0,1,1.36-2.34,5.08,5.08,0,0,1,1.94-1.29,6.55,6.55,0,0,1,2.27-.41,10.49,10.49,0,0,1,3.18.4,11.9,11.9,0,0,1,2.46,1l.35.2,1.73-5.14-.22-.14c-.2-.13-.5-.3-.91-.51a10.86,10.86,0,0,0-1.58-.65,17.91,17.91,0,0,0-2.18-.53,14.88,14.88,0,0,0-2.78-.23,13.34,13.34,0,0,0-4.9.89A10.88,10.88,0,0,0,46.1,9.66a12.24,12.24,0,0,0-2.57,4.19,16,16,0,0,0-.92,5.6c0,4.18,1.06,7.46,3.12,9.74s5.06,3.44,8.93,3.44h.06a17.76,17.76,0,0,0,4.8-.59,12.49,12.49,0,0,0,3.24-1.34l.22-.14Z" style="fill:#3b7759"/><path d="M87.65,31.6c-.88-2.65-1.74-5.13-2.54-7.39s-1.59-4.41-2.35-6.39-1.54-3.9-2.29-5.7-1.53-3.57-2.3-5.26l-.09-.2H72.63l-.09.2c-.79,1.71-1.55,3.49-2.29,5.29s-1.48,3.7-2.23,5.7S66.5,22,65.71,24.27s-1.63,4.74-2.5,7.4l-.14.44,6.21,0,.07-.24c.25-.85.53-1.73.82-2.63L71,26.73l8.69,0,.83,2.47c.3.9.58,1.78.85,2.64l.07.24,6.38,0ZM75.06,14.19c.08-.22.15-.42.22-.6l.22.59.81,2.14q.45,1.2,1,2.67l.9,2.62-5.77,0q.46-1.36.93-2.61l1-2.69Z" style="fill:#3b7759"/><path d="M108.53,31.5c-.41-.89-.86-1.83-1.34-2.77s-1-1.86-1.49-2.73-1-1.7-1.56-2.51q-.66-1-1.26-1.8a7.75,7.75,0,0,0,3-2.5,7.57,7.57,0,0,0,1.18-4.43,7.34,7.34,0,0,0-3-6.42c-1.92-1.34-4.68-2-8.23-2H95.8c-1,0-2.1.06-3.33.16A28,28,0,0,0,88.86,7l-.27.06.07,25,6,0,0-9h2.11c.41.53.83,1.12,1.24,1.75s.92,1.45,1.38,2.22.92,1.58,1.36,2.41L102,31.82l.1.18,6.63,0ZM101,14.75a2.56,2.56,0,0,1-1.12,2.39,8.43,8.43,0,0,1-4.09.75H94.58l0-6.06.56-.05c.29,0,.63,0,1,0a7.45,7.45,0,0,1,3.67.71A2.43,2.43,0,0,1,101,14.75Z" style="fill:#3b7759"/><path d="M133.73,31.46c-.89-2.64-1.74-5.13-2.54-7.38s-1.59-4.4-2.36-6.4-1.53-3.89-2.28-5.69-1.53-3.56-2.3-5.27l-.09-.2-5.45,0-.09.2c-.79,1.71-1.56,3.49-2.29,5.28s-1.48,3.71-2.23,5.71-1.52,4.13-2.31,6.4-1.63,4.74-2.5,7.4l-.15.45,6.21,0,.08-.24c.25-.85.52-1.73.82-2.64l.81-2.48,8.69,0,.83,2.48c.3.9.58,1.78.84,2.63l.08.24,6.38,0Zm-12.59-17.4.22-.61c.06.18.14.38.22.59l.8,2.14c.31.81.63,1.7,1,2.67l.9,2.63-5.77,0c.31-.91.62-1.78.92-2.62s.68-1.87,1-2.68S120.91,14.68,121.14,14.06Z" style="fill:#3b7759"/><path d="M147.7,6.46l-.07.23c-.44,1.44-.92,3-1.46,4.64s-1.07,3.3-1.63,4.94-1.09,3.21-1.6,4.71c-.4,1.15-.78,2.19-1.13,3.1-.37-.91-.76-1.95-1.15-3.1L139,16.27q-.85-2.46-1.66-4.93c-.54-1.64-1-3.18-1.48-4.61l-.07-.24-6.55,0,.14.44c.5,1.55,1.11,3.35,1.8,5.36s1.46,4.11,2.28,6.28,1.7,4.4,2.62,6.63,1.85,4.41,2.79,6.47l.09.2,5.48,0,.09-.19c.92-2.08,1.84-4.26,2.74-6.48s1.75-4.46,2.56-6.66,1.55-4.29,2.23-6.29,1.28-3.79,1.8-5.37l.15-.44Z" style="fill:#3b7759"/><path d="M173.54,31.35c-.89-2.66-1.75-5.14-2.55-7.39s-1.59-4.4-2.35-6.39-1.53-3.89-2.29-5.7-1.52-3.55-2.3-5.26l-.09-.2h-5.45l-.09.2c-.78,1.71-1.55,3.49-2.28,5.28s-1.48,3.71-2.23,5.71-1.53,4.13-2.32,6.41-1.62,4.73-2.5,7.4l-.14.44,6.21,0,.07-.24c.25-.85.53-1.73.82-2.63l.81-2.49,8.69,0,.83,2.47c.3.9.59,1.78.85,2.64l.07.24,6.39,0Zm-12.6-17.41c.08-.22.16-.42.22-.6l.22.59c.24.61.5,1.33.81,2.14s.63,1.7,1,2.67.6,1.71.91,2.62l-5.78,0q.47-1.36.93-2.61c.36-1,.68-1.87,1-2.69S160.72,14.56,160.94,13.94Z" style="fill:#3b7759"/><path d="M195,6.32l-5.93,0,0,13.77c-.63-1-1.3-2-2-3-.92-1.37-1.87-2.73-2.82-4s-1.87-2.52-2.78-3.66-1.75-2.13-2.5-2.91l-.1-.11-4.79,0,.07,25.41,5.9,0,0-15.58a82.27,82.27,0,0,1,5,7c1.76,2.74,3.42,5.54,4.93,8.35l.09.18h5Z" style="fill:#3b7759"/><path d="M213.62,26.54l-9.91,0a4.38,4.38,0,0,1,.26-.37c.28-.37.59-.76.95-1.19s.73-.84,1.12-1.25.75-.79,1.09-1.12c.65-.64,1.32-1.33,2-2.05A19.74,19.74,0,0,0,211,18.31a12.24,12.24,0,0,0,1.35-2.48,7.29,7.29,0,0,0,.53-2.73,9.39,9.39,0,0,0-.49-3.06,5.76,5.76,0,0,0-1.52-2.34,7,7,0,0,0-2.58-1.47,12,12,0,0,0-3.67-.51,10.13,10.13,0,0,0-4.4,1,13.12,13.12,0,0,0-3.56,2.48l-.2.2,2.91,4.29.29-.31c.15-.16.39-.38.69-.64a8.57,8.57,0,0,1,1.09-.79,7.93,7.93,0,0,1,1.4-.69,4.36,4.36,0,0,1,1.59-.29,3.19,3.19,0,0,1,1.9.57,2.32,2.32,0,0,1,.72,1.94,3.23,3.23,0,0,1-.27,1.28,6.46,6.46,0,0,1-.8,1.32,16.89,16.89,0,0,1-1.23,1.4L203.22,19l-2.11,2.15a16.22,16.22,0,0,0-2,2.35,11.8,11.8,0,0,0-1.4,2.74,9.45,9.45,0,0,0-.54,3.26v.85a6.11,6.11,0,0,0,.08,1.06l0,.28,16.28,0Z" style="fill:#f8aa15"/><path d="M224.48,27.17v5.54l5.63,0,0-5.53Z" style="fill:#3b7759"/><path d="M230.09,26.09h2.51v-5h-2.51l0-14.84h-5.27l-.1.11A45.36,45.36,0,0,0,221.61,10c-1,1.34-2,2.72-2.9,4.11s-1.75,2.77-2.49,4.1-1.38,2.53-1.87,3.58l0,.06v4.31l10.14,0Zm-10.09-5a27,27,0,0,1,2.24-3.86c.76-1.1,1.5-2.14,2.19-3.12l0,7Z" style="fill:#f8aa15"/><path d="M33,.15A5.57,5.57,0,0,0,31.67,0H6.5A6.31,6.31,0,0,0,.16,6.26L0,30.21C24.42,24.81,13.79,5.92,33,.15" style="fill:#3b7759"/><path d="M35.31,1.37C22.64,7.58,29.53,26.77,15,37.93l16.46,0a6.3,6.3,0,0,0,6.34-6.26l.18-25.18a6.31,6.31,0,0,0-2.62-5.15" style="fill:#f5aa37"/><path d="M8.7,32.9a27.38,27.38,0,0,0,3.75-2.25l1.07,1A34.29,34.29,0,0,1,8.7,34.6L8,33.23Z" style="fill:#3b7759"/><path d="M15,28a22.83,22.83,0,0,0,2.47-3.51l1,.62a27,27,0,0,1-2.95,4.29l-1-.89Z" style="fill:#3b7759"/><path d="M19.1,21.43c.11-.28,1.51-3.89,1.56-4l.95.35c-.31.81-1.39,4-1.78,4.75L18.9,22Z" style="fill:#3b7759"/><path d="M21.66,14.55A26.12,26.12,0,0,1,23.2,11l.73.39a26.25,26.25,0,0,0-1.59,3.92L21.48,15Z" style="fill:#3b7759"/><path d="M24.53,8.57a13.18,13.18,0,0,1,1.71-2.51l.53.35A18.54,18.54,0,0,0,25,9.48l-.72-.38Z" style="fill:#3b7759"/><path d="M29.54,3l.33.25a10,10,0,0,0-2.15,2l-.45-.32A8.54,8.54,0,0,1,29.54,3" style="fill:#3b7759"/><path d="M32.12,1.49l.29.16A12,12,0,0,0,30.6,2.71l-.31-.22a9.77,9.77,0,0,1,1.83-1" style="fill:#3b7759"/><path d="M33.92.61l.33.1A9.62,9.62,0,0,0,33,1.33l-.29-.2A8.28,8.28,0,0,1,33.92.61" style="fill:#3b7759"/><path d="M4.11,34.93c-.74.26-1.48.48-2.23.69a6.24,6.24,0,0,0,1.53,1.27c.63-.21,1.35-.48,2-.71l-.52-1.51Z" style="fill:#3b7759"/></svg>