<svg xmlns="http://www.w3.org/2000/svg" width="500" height="64.99" viewBox="0 0 500 64.99"><path d="M458.09,20.81a21,21,0,0,0-5.69-8.18A23.07,23.07,0,0,0,443.59,8a40.4,40.4,0,0,0-11.27-1.44c-1.91,0-4.24.1-6.93.27a61.71,61.71,0,0,0-7.8,1l-.55.11.15,49.82.54.12a54.46,54.46,0,0,0,7.64,1c2.49.15,4.71.23,6.58.23h.18a38.92,38.92,0,0,0,11.58-1.65,23.59,23.59,0,0,0,8.84-4.93,21.79,21.79,0,0,0,5.61-8.29,31.18,31.18,0,0,0,1.93-11.59A32.16,32.16,0,0,0,458.09,20.81Zm-10.4,11.9c0,4.81-1.22,8.61-3.66,11.32s-6.26,4-11.38,4.07c-.92,0-1.69,0-2.34,0-.4,0-.76,0-1.09-.06l-.09-30.37c.48-.05,1-.09,1.53-.11.77,0,1.52,0,2.24,0H433c5.08,0,8.83,1.27,11.14,3.79S447.68,27.67,447.69,32.71Z" style="fill:#111"/><polygon points="499.97 47.47 477 47.53 476.97 36.85 495.96 36.79 495.93 26.19 476.94 26.25 476.92 17.79 498.31 17.73 498.27 6.91 464.83 7.01 464.97 58.39 500 58.28 499.97 47.47" style="fill:#111"/><path d="M116.07,45.75l-.71.34c-.6.3-1.26.61-2,.95a15.71,15.71,0,0,1-2.45.88,28.71,28.71,0,0,1-3.23.68,26.55,26.55,0,0,1-4.11.29,13.5,13.5,0,0,1-6-1.18,10.78,10.78,0,0,1-4-3.23,13.58,13.58,0,0,1-2.24-4.94,27.16,27.16,0,0,1-.73-6.34,21.53,21.53,0,0,1,1-7.19,13.45,13.45,0,0,1,2.77-4.75,10.28,10.28,0,0,1,3.94-2.63,13.45,13.45,0,0,1,4.63-.85,21.29,21.29,0,0,1,6.47.83,24.67,24.67,0,0,1,5,2l.72.4,3.51-10.45-.44-.29c-.4-.26-1-.61-1.86-1.05a23.19,23.19,0,0,0-3.21-1.31,36.1,36.1,0,0,0-4.44-1.09,31.71,31.71,0,0,0-5.65-.47,27.36,27.36,0,0,0-10,1.82,22,22,0,0,0-8,5.31A24.89,24.89,0,0,0,79.87,22,32.09,32.09,0,0,0,78,33.45c0,8.51,2.16,15.19,6.35,19.84s10.3,7,18.19,7h.12a36.36,36.36,0,0,0,9.78-1.22,25.31,25.31,0,0,0,6.6-2.71l.45-.29Z" style="fill:#111"/><path d="M169.72,57.37c-1.81-5.37-3.55-10.41-5.18-15s-3.25-8.95-4.8-13-3.12-7.92-4.65-11.56S152,10.58,150.4,7.13l-.18-.4-11.1,0-.18.4c-1.6,3.47-3.17,7.08-4.65,10.73s-3,7.53-4.55,11.59-3.09,8.36-4.71,13-3.31,9.64-5.09,15l-.29.9,12.65,0,.14-.49c.52-1.73,1.07-3.51,1.68-5.35l1.64-5,17.7-.06,1.69,5c.61,1.83,1.19,3.61,1.72,5.35l.16.48,13,0ZM144.08,22l.44-1.22L145,22l1.64,4.34q.93,2.46,2,5.43.88,2.55,1.83,5.33l-11.76,0q1-2.76,1.89-5.31c.73-2,1.38-3.79,2-5.44S143.62,23.28,144.08,22Z" style="fill:#111"/><path d="M212.22,58c-.82-1.83-1.74-3.73-2.72-5.66s-2-3.78-3-5.55-2.1-3.47-3.17-5.11c-.89-1.34-1.75-2.58-2.56-3.67a15.73,15.73,0,0,0,6.15-5.09,15.46,15.46,0,0,0,2.41-9c0-5.88-2.06-10.28-6.06-13.08s-9.54-4.11-16.75-4.11h-.16c-2,0-4.28.11-6.79.31a58.64,58.64,0,0,0-7.37,1l-.54.11.15,50.89,12.14,0,0-18.39h4.29c.84,1.06,1.69,2.26,2.54,3.56s1.87,2.94,2.81,4.51,1.87,3.23,2.77,4.91,1.8,3.37,2.68,5l.2.36,13.51,0ZM196.8,23.87c0,2.33-.74,3.93-2.28,4.87s-4.44,1.51-8.34,1.53h-2.35l0-12.34,1.13-.1c.6,0,1.29-.07,2.05-.07,3.3,0,5.83.47,7.49,1.44S196.79,21.64,196.8,23.87Z" style="fill:#111"/><path d="M263.55,57.91c-1.81-5.39-3.55-10.45-5.18-15s-3.24-8.95-4.8-13-3.11-7.93-4.65-11.6S245.81,11,244.23,7.53l-.18-.4L233,7.16l-.19.4c-1.6,3.49-3.17,7.11-4.65,10.76s-3,7.56-4.55,11.62-3.1,8.42-4.71,13.05-3.3,9.64-5.08,15.07l-.3.9,12.65,0,.14-.49q.78-2.59,1.68-5.36L229.59,48l17.7,0L249,53q.92,2.76,1.73,5.38l.15.48,13,0ZM237.91,22.47c.16-.44.31-.85.44-1.23l.45,1.2c.47,1.26,1,2.71,1.64,4.36s1.28,3.46,2,5.44q.89,2.57,1.83,5.34l-11.76,0c.64-1.85,1.27-3.62,1.89-5.33.73-2,1.38-3.8,2-5.46S237.45,23.73,237.91,22.47Z" style="fill:#111"/><path d="M292,7l-.15.49q-1.34,4.39-3,9.43T285.57,27q-1.69,5-3.28,9.6c-.8,2.34-1.57,4.46-2.29,6.31-.76-1.85-1.54-4-2.35-6.31L274.35,27q-1.71-5-3.37-10t-3-9.39l-.15-.49-13.33,0,.29.89c1,3.17,2.25,6.84,3.66,10.91s3,8.39,4.64,12.8,3.46,9,5.33,13.5,3.77,9,5.68,13.18l.18.4,11.17,0,.18-.4c1.88-4.23,3.76-8.66,5.57-13.2s3.57-9.07,5.22-13.55,3.16-8.73,4.54-12.81,2.61-7.71,3.67-10.93l.3-.91Z" style="fill:#111"/><path d="M344.61,57.68c-1.81-5.41-3.56-10.47-5.18-15s-3.24-9-4.8-13S331.52,21.7,330,18s-3.11-7.24-4.69-10.72l-.18-.41L314,6.93l-.19.39c-1.6,3.5-3.17,7.12-4.65,10.77s-3,7.55-4.55,11.62-3.1,8.41-4.71,13-3.3,9.64-5.08,15.07l-.3.91,12.65,0,.14-.49q.78-2.61,1.68-5.37l1.64-5,17.7-.06,1.69,5q.91,2.76,1.73,5.37l.15.49,13,0ZM319,22.23c.16-.44.31-.85.44-1.23l.45,1.21,1.64,4.35q.93,2.48,2,5.44.88,2.56,1.83,5.35l-11.76,0c.64-1.84,1.27-3.62,1.89-5.32.73-2,1.38-3.81,2-5.46S318.51,23.49,319,22.23Z" style="fill:#111"/><path d="M388.34,6.71l-12.08,0,.09,28.06c-1.3-2-2.66-4.07-4.08-6.19-1.88-2.8-3.81-5.57-5.73-8.21s-3.82-5.14-5.67-7.46S357.3,8.62,355.77,7l-.2-.22-9.75,0L346,58.57l12,0-.09-31.73a175.34,175.34,0,0,1,10.24,14.3c3.58,5.57,6.95,11.29,10,17l.2.36,10.14,0Z" style="fill:#111"/><path d="M397.11,47.16l0,11.26,11.45,0,0-11.26Z" style="fill:#f60"/><path d="M56.45.25A10.88,10.88,0,0,0,54.22,0H11.14A10.79,10.79,0,0,0,.28,10.72L0,51.72C41.81,42.47,23.6,10.13,56.45.25" style="fill:#111"/><path d="M60.45,2.34C38.76,13,50.56,45.82,25.6,65l28.18,0A10.8,10.8,0,0,0,64.64,54.27l.29-43.11a10.79,10.79,0,0,0-4.48-8.82" style="fill:#f60"/><path d="M14.89,56.33a48.66,48.66,0,0,0,6.43-3.86l1.82,1.79a60.16,60.16,0,0,1-8.24,5L13.75,56.9Z" style="fill:#111"/><path d="M25.74,48a39.61,39.61,0,0,0,4.25-6L31.73,43a44.61,44.61,0,0,1-5,7.34L25,48.82Z" style="fill:#111"/><path d="M32.7,36.69l2.68-6.92,1.62.6c-.54,1.38-2.38,6.83-3,8.13l-1.6-.91Z" style="fill:#111"/><path d="M37.08,24.91a44.84,44.84,0,0,1,2.64-6l1.24.68a45.81,45.81,0,0,0-2.72,6.7l-1.46-.61Z" style="fill:#111"/><path d="M42,14.67a22.53,22.53,0,0,1,2.92-4.29l.92.59a30.92,30.92,0,0,0-3.12,5.26l-1.24-.65Z" style="fill:#111"/><path d="M50.58,5.18l.56.41A17.16,17.16,0,0,0,47.46,9l-.78-.55a14.59,14.59,0,0,1,3.9-3.23" style="fill:#111"/><path d="M55,2.55l.49.28a19.52,19.52,0,0,0-3.08,1.8l-.55-.37A17.3,17.3,0,0,1,55,2.55" style="fill:#111"/><path d="M58.07,1l.57.18a16.37,16.37,0,0,0-2.11,1.05L56,1.93a14.48,14.48,0,0,1,2-.89" style="fill:#111"/><path d="M7,59.8c-1.26.44-2.54.82-3.83,1.19a10.72,10.72,0,0,0,2.63,2.16c1.07-.35,2.31-.81,3.37-1.2l-.89-2.59Z" style="fill:#111"/></svg>