<svg xmlns="http://www.w3.org/2000/svg" viewBox="0 0 394.28 107.12"><title>caravan24-logo</title><circle cx="376.45" cy="36.86" r="12.65" style="fill:#f8a913"/><circle cx="345.46" cy="16.26" r="16.26" style="fill:#f8a913"/><circle cx="385.24" cy="65.98" r="9.03" style="fill:#f8a913"/><circle cx="378.95" cy="89.51" r="5.42" style="fill:#f8a913"/><path d="M26.11,93.76a20.61,20.61,0,0,0,11-3.28c.26,2.37-.66,6.07-2,7.65A22.35,22.35,0,0,1,23.68,101C11.19,101,4.16,92.42,4.12,78.43c0-16,9-23.34,20.27-23.37,4.56,0,8.1,1,10.47,2.61a11.59,11.59,0,0,1,1.37,7.56,18,18,0,0,0-10.38-3.05c-8.61,0-14.25,5-14.22,15.61C11.66,88.7,17.16,93.79,26.11,93.76Z" transform="translate(-4.12)" style="fill:#1d1d1b"/><path d="M67.79,95.66c-2.43,3.35-6.31,5.21-11.88,5.23-7.26,0-13.6-3.57-13.62-13.16,0-10.29,7.3-14.53,16.83-14.56a22.38,22.38,0,0,1,8.44,1.38V72.27c0-7.31-2.73-10.38-9.32-10.36a24.2,24.2,0,0,0-12.9,3.91,11.43,11.43,0,0,1,.83-7.65C49,56.4,54,55,59.57,55c10.05,0,15.21,4.44,15.24,16.49l.06,19.18c0,2.55,1.27,3.25,3,3.24a7.1,7.1,0,0,0,4-1.24,11.16,11.16,0,0,1-1.41,6.6,10.45,10.45,0,0,1-5.57,1.6c-3.8,0-6-1.91-6.68-5.17Zm-.21-15a20.26,20.26,0,0,0-7.34-1.3c-7,0-10.63,3.29-10.61,8s3.56,6.59,8.12,6.57c3.63,0,7.67-1.25,9.86-4.6Z" transform="translate(-4.12)" style="fill:#1d1d1b"/><path d="M106.07,54.82a9.79,9.79,0,0,1,4.39.78,10,10,0,0,1,1.11,4.93,8.81,8.81,0,0,1-.5,3.25,10.47,10.47,0,0,0-5.24-1.3c-5.14,0-8.76,3.45-10.85,10l.07,26.13a7.27,7.27,0,0,1-3.62.62,7.8,7.8,0,0,1-3.72-.6l-.12-41.44a13.07,13.07,0,0,1,6-1.24l.61,7.74h.34C96.29,58.37,99.57,54.84,106.07,54.82Z" transform="translate(-4.12)" style="fill:#1d1d1b"/><path d="M138.67,95.46c-2.44,3.35-6.31,5.21-11.88,5.22-7.26,0-13.6-3.56-13.63-13.15C113.13,77.24,120.46,73,130,73a22.38,22.38,0,0,1,8.44,1.39V72.06c0-7.3-2.73-10.37-9.31-10.35a24.2,24.2,0,0,0-12.9,3.9A11.43,11.43,0,0,1,117,58c2.87-1.77,7.84-3.19,13.41-3.21,10,0,15.2,4.45,15.24,16.5l.05,19.17c0,2.55,1.28,3.25,3,3.25a7.26,7.26,0,0,0,4-1.24,11.19,11.19,0,0,1-1.42,6.6,10.56,10.56,0,0,1-5.56,1.6c-3.8,0-6-1.92-6.68-5.17Zm-.21-15a20.72,20.72,0,0,0-7.35-1.3c-7,0-10.62,3.29-10.61,8s3.57,6.59,8.12,6.58c3.63,0,7.68-1.26,9.86-4.61Z" transform="translate(-4.12)" style="fill:#1d1d1b"/><path d="M171.49,93.6a62.16,62.16,0,0,1,2.16-9l9.63-28.09a7,7,0,0,1,3-.53,7.3,7.3,0,0,1,4.23,1L175.8,98.43a31.88,31.88,0,0,1-9,1.08L151.3,57.16a8.15,8.15,0,0,1,4.47-1.07,6.35,6.35,0,0,1,2.95.52l10,28a67.84,67.84,0,0,1,2.39,9Z" transform="translate(-4.12)" style="fill:#1d1d1b"/><path d="M217.65,95.23c-2.44,3.35-6.32,5.21-11.89,5.22-7.25,0-13.59-3.56-13.62-13.15,0-10.29,7.3-14.54,16.83-14.57a22.6,22.6,0,0,1,8.45,1.39V71.83c0-7.3-2.73-10.37-9.31-10.35a24.2,24.2,0,0,0-12.9,3.9,11.44,11.44,0,0,1,.82-7.65c2.86-1.77,7.84-3.19,13.41-3.21,10,0,15.2,4.45,15.24,16.5l.05,19.17c0,2.55,1.28,3.25,3,3.25a7.21,7.21,0,0,0,4-1.24,11.27,11.27,0,0,1-1.42,6.6,10.59,10.59,0,0,1-5.56,1.6c-3.8,0-6-1.92-6.68-5.17Zm-.21-15A20.54,20.54,0,0,0,210.09,79c-7,0-10.62,3.28-10.61,7.94s3.56,6.59,8.12,6.58c3.63,0,7.68-1.26,9.86-4.61Z" transform="translate(-4.12)" style="fill:#1d1d1b"/><path d="M244.91,98.14a7.44,7.44,0,0,1-3.63.63,7.73,7.73,0,0,1-3.71-.61l-.12-41.43a13,13,0,0,1,6-1.25l.53,6.6h.34c1.84-4.06,6-7.68,14-7.7,6.67,0,14.19,2.42,14.23,16.67l.08,27a7.44,7.44,0,0,1-3.63.63,7.73,7.73,0,0,1-3.71-.61l-.08-25.51c0-6.77-2.14-11.08-9.14-11.06a11.92,11.92,0,0,0-11.21,6.81Z" transform="translate(-4.12)" style="fill:#1d1d1b"/><path d="M319.78,88.22a34.91,34.91,0,0,1-1.38,10.65H284.06a34.33,34.33,0,0,1-1.54-10.81c8.91-5.53,22.82-11.53,22.82-19.06,0-3.53-3.07-5.29-7.76-5.29a26.94,26.94,0,0,0-14.21,4.65A21.74,21.74,0,0,1,286,57,27.59,27.59,0,0,1,301,53c10.14,0,16.9,4.08,16.9,13.13,0,10.66-7.68,17.47-17,21.47v.64Z" transform="translate(-4.12)" style="fill:#1d1d1b"/><path d="M360.88,106.16a12.52,12.52,0,0,1-5.61,1,13.1,13.1,0,0,1-5.68-1V94.55H323.85a27.16,27.16,0,0,1-1.46-9.37,216.15,216.15,0,0,1,25.51-32c4.22.16,9.68,1.12,13,2.72v28.6h6.3a13.78,13.78,0,0,1,.69,5,14.34,14.34,0,0,1-.69,5h-6.3ZM349.59,73.32a36.13,36.13,0,0,1,.69-7.61h-.61a117.55,117.55,0,0,0-14.29,18.75v.64a33.16,33.16,0,0,1,6.14-.48h8.07Z" transform="translate(-4.12)" style="fill:#1d1d1b"/></svg>