<svg xmlns="http://www.w3.org/2000/svg" width="534.9" height="81.27" viewBox="0 0 534.9 81.27"><path d="M490.84,28.35a22,22,0,0,0-6-8.6,24.15,24.15,0,0,0-9.26-4.9,42.79,42.79,0,0,0-11.84-1.52c-2,0-4.47.11-7.29.29a66,66,0,0,0-8.2,1.06l-.58.12.15,52.38.57.12a55.81,55.81,0,0,0,8,1.09c2.63.17,4.95.25,6.92.25h.19a40.8,40.8,0,0,0,12.18-1.74,25,25,0,0,0,9.3-5.18A23,23,0,0,0,490.91,53a33,33,0,0,0,2-12.19A34,34,0,0,0,490.84,28.35ZM479.9,40.86c0,5.06-1.28,9.06-3.85,11.9s-6.57,4.26-12,4.28c-1,0-1.77,0-2.46,0L460.48,57,460.39,25c.5-.06,1.05-.1,1.61-.12.81,0,1.59,0,2.36,0h.09c5.34,0,9.28,1.34,11.71,4S479.89,35.56,479.9,40.86Z" style="fill:#111"/><polygon points="534.87 56.38 510.72 56.45 510.69 45.21 530.65 45.15 530.62 34.01 510.65 34.06 510.63 25.18 533.12 25.11 533.08 13.74 497.92 13.84 498.07 67.86 534.9 67.75 534.87 56.38" style="fill:#111"/><path d="M131.25,54.57l-.74.36c-.62.31-1.32.64-2.09,1a17.3,17.3,0,0,1-2.57.92,31.75,31.75,0,0,1-3.4.72,29.19,29.19,0,0,1-4.32.31,14.17,14.17,0,0,1-6.37-1.25,11.31,11.31,0,0,1-4.21-3.4A14.39,14.39,0,0,1,105.19,48a28.73,28.73,0,0,1-.76-6.67,22.25,22.25,0,0,1,1.1-7.55,14.21,14.21,0,0,1,2.91-5,10.89,10.89,0,0,1,4.15-2.78,14,14,0,0,1,4.87-.88,22.49,22.49,0,0,1,6.8.86,26.43,26.43,0,0,1,5.26,2.14l.76.42,3.7-11-.47-.3c-.43-.28-1.08-.65-1.95-1.1a23.91,23.91,0,0,0-3.38-1.38,38.93,38.93,0,0,0-4.67-1.15,34,34,0,0,0-5.94-.49,28.9,28.9,0,0,0-10.5,1.91,23.14,23.14,0,0,0-8.37,5.58,26.49,26.49,0,0,0-5.5,9,33.81,33.81,0,0,0-2,12c0,9,2.27,16,6.67,20.86s10.83,7.37,19.13,7.37h.12a38.21,38.21,0,0,0,10.28-1.28,26.53,26.53,0,0,0,6.94-2.86l.47-.3Z" style="fill:#111"/><path d="M187.66,67.64c-1.9-5.65-3.73-11-5.45-15.81s-3.41-9.43-5-13.68-3.28-8.35-4.89-12.2-3.28-7.64-4.93-11.27l-.19-.42-11.66,0-.2.42c-1.68,3.66-3.33,7.46-4.89,11.31s-3.17,7.94-4.78,12.22-3.25,8.82-4.95,13.71-3.48,10.16-5.35,15.85l-.31,1,13.3,0,.15-.52q.81-2.73,1.76-5.64L152,57.24l18.6-.06,1.78,5.3c.65,1.93,1.25,3.81,1.82,5.64l.16.51,13.66,0Zm-27-37.26c.17-.46.33-.89.47-1.29.14.39.3.81.47,1.26.5,1.32,1.07,2.85,1.73,4.59s1.34,3.63,2.06,5.71q.94,2.7,1.93,5.62l-12.36,0q1-2.91,2-5.6,1.14-3.14,2.07-5.74C159.67,33.24,160.22,31.7,160.7,30.38Z" style="fill:#111"/><path d="M232.35,67.44c-.87-1.92-1.84-3.91-2.86-5.94s-2.1-4-3.2-5.83S224.08,52,223,50.3c-.93-1.42-1.83-2.72-2.69-3.87a16.38,16.38,0,0,0,6.46-5.35,16.17,16.17,0,0,0,2.54-9.47c0-6.18-2.16-10.81-6.37-13.76s-10-4.32-17.61-4.32h-.17c-2.1,0-4.5.12-7.13.33A62.59,62.59,0,0,0,190.23,15l-.57.12.15,53.5,12.77,0-.06-19.33H207c.88,1.12,1.78,2.38,2.67,3.75s2,3.08,2.95,4.74,2,3.39,2.91,5.16l2.83,5.26.2.38,14.21,0ZM216.13,31.57c0,2.45-.78,4.13-2.4,5.12s-4.66,1.59-8.77,1.6h-2.47l0-13,1.19-.1c.64,0,1.35-.08,2.16-.08,3.46,0,6.13.5,7.87,1.52S216.12,29.23,216.13,31.57Z" style="fill:#111"/><path d="M286.31,67.36c-1.9-5.67-3.73-11-5.45-15.82s-3.4-9.41-5-13.68-3.27-8.33-4.89-12.19-3.27-7.62-4.93-11.28l-.19-.42-11.67,0-.19.42c-1.68,3.67-3.33,7.48-4.89,11.32s-3.17,7.94-4.78,12.21-3.26,8.85-5,13.72S235.86,61.8,234,67.51l-.31.95,13.3,0,.15-.51q.81-2.75,1.76-5.64L250.61,57l18.6-.06,1.78,5.3c.65,1.93,1.25,3.81,1.82,5.65l.15.51,13.67,0Zm-27-37.27c.17-.46.32-.89.47-1.29.14.39.3.81.47,1.27.5,1.32,1.07,2.84,1.72,4.58s1.35,3.63,2.07,5.71Q265,43.06,266,46l-12.36,0q1-2.91,2-5.6,1.15-3.14,2.07-5.74Z" style="fill:#111"/><path d="M316.21,13.82l-.15.51Q314.65,19,313,24.25t-3.49,10.58Q307.67,40.1,306,44.92c-.85,2.46-1.65,4.69-2.41,6.64-.79-2-1.62-4.18-2.47-6.64l-3.46-10.08q-1.82-5.27-3.55-10.55T291,14.41l-.16-.51-14,0,.3.94c1.07,3.32,2.36,7.18,3.85,11.47s3.13,8.81,4.88,13.44,3.64,9.44,5.6,14.2,4,9.44,6,13.86l.19.42,11.74,0,.19-.43c2-4.43,3.95-9.1,5.86-13.87s3.75-9.54,5.48-14.24,3.33-9.19,4.78-13.47,2.74-8.11,3.86-11.5l.32-1Z" style="fill:#111"/><path d="M371.53,67.11c-1.91-5.68-3.74-11-5.45-15.81s-3.4-9.42-5-13.69-3.27-8.33-4.89-12.19-3.27-7.62-4.93-11.28l-.19-.42-11.66,0-.2.42c-1.68,3.67-3.33,7.48-4.89,11.32s-3.17,7.94-4.78,12.22-3.26,8.84-4.95,13.71-3.47,10.13-5.35,15.84l-.31.95,13.3,0,.15-.51c.54-1.82,1.13-3.71,1.76-5.64l1.73-5.32,18.6-.05,1.78,5.29c.65,1.93,1.25,3.81,1.82,5.65l.16.51,13.66,0Zm-27-37.26.47-1.29.47,1.26c.5,1.32,1.07,2.85,1.73,4.58s1.34,3.63,2.06,5.72c.63,1.79,1.27,3.67,1.93,5.62l-12.36,0q1-2.91,2-5.59Q342,37,342.93,34.43T344.57,29.85Z" style="fill:#111"/><path d="M417.51,13.53l-12.7,0,.09,29.5c-1.36-2.1-2.8-4.28-4.29-6.51-2-2.95-4-5.85-6-8.64s-4-5.4-6-7.84-3.75-4.54-5.36-6.22l-.21-.22-10.25,0L373,68.05l12.62,0-.1-33.36a183.45,183.45,0,0,1,10.77,15c3.76,5.85,7.31,11.86,10.55,17.87l.2.39,10.66,0Z" style="fill:#111"/><path d="M426.73,58.18l0,11.84,12.05,0,0-11.85Z" style="fill:#f60"/><path d="M70.59.31A14.19,14.19,0,0,0,67.8,0H13.93A13.49,13.49,0,0,0,.35,13.4L0,64.68C52.28,53.11,29.51,12.67,70.59.31" style="fill:#111"/><path d="M75.59,2.93C48.47,16.22,63.23,57.3,32,81.22l35.24,0a13.49,13.49,0,0,0,13.58-13.4L81.2,14a13.47,13.47,0,0,0-5.61-11" style="fill:#f60"/><path d="M18.62,70.44a60.09,60.09,0,0,0,8-4.83l2.27,2.24a74.44,74.44,0,0,1-10.3,6.23L17.2,71.15Z" style="fill:#111"/><path d="M32.19,60a49.59,49.59,0,0,0,5.31-7.53l2.18,1.34A55.48,55.48,0,0,1,33.37,63l-2.08-1.91Z" style="fill:#111"/><path d="M40.89,45.88l3.35-8.65,2,.75c-.66,1.73-3,8.54-3.8,10.17l-2-1.15Z" style="fill:#111"/><path d="M46.37,31.15a55,55,0,0,1,3.3-7.54l1.55.84a55.66,55.66,0,0,0-3.39,8.39L46,32.07Z" style="fill:#111"/><path d="M52.52,18.34A28.68,28.68,0,0,1,56.17,13l1.15.73a39.87,39.87,0,0,0-3.9,6.59l-1.55-.81Z" style="fill:#111"/><path d="M63.25,6.47,64,7a21.69,21.69,0,0,0-4.61,4.21l-1-.69a18.51,18.51,0,0,1,4.88-4" style="fill:#111"/><path d="M68.76,3.18l.62.36A23.85,23.85,0,0,0,65.52,5.8l-.68-.47a22.07,22.07,0,0,1,3.92-2.15" style="fill:#111"/><path d="M72.62,1.3l.72.22A20.41,20.41,0,0,0,70.7,2.84l-.62-.43A19,19,0,0,1,72.62,1.3" style="fill:#111"/><path d="M8.81,74.78c-1.58.55-3.19,1-4.8,1.48A13,13,0,0,0,7.31,79c1.33-.44,2.88-1,4.2-1.51l-1.1-3.23Z" style="fill:#111"/></svg>