<svg xmlns="http://www.w3.org/2000/svg" viewBox="0 0 504.01 243.73"><title>caravan24_icon_integriert</title><path d="M0,34V30.14C0,13.5,14.5,0,31.13,0h334a34.15,34.15,0,0,1,34.14,34.17,3,3,0,0,1-3,3H388l30.16,29.48A69.48,69.48,0,0,0,446,84.56a85.71,85.71,0,0,1,58,81.11v40.75a8.29,8.29,0,0,1-8.28,8.29H452.51a37.29,37.29,0,0,1-72.73,0H167.34a37.29,37.29,0,0,1-72.73,0H30.94A31,31,0,0,1,0,183.77V34.57C0,34.37,0,34.19,0,34ZM416.14,227.15a20.73,20.73,0,1,0-20.72-20.73A20.77,20.77,0,0,0,416.14,227.15ZM314.52,107.87H408c-5-3.65-14.68-15.76-18.94-20.26l-23-25.25c-9.88-10.45-17.8-17.44-32.19-17.44H314.52a4,4,0,0,0-4,4v55A4,4,0,0,0,314.52,107.87Zm-143.9-31h61.89a4,4,0,0,0,4-4V48.05a4,4,0,0,0-4-4H170.62a4,4,0,0,0-4,4V72.91A4,4,0,0,0,170.62,76.91ZM131,227.15a20.73,20.73,0,1,0-20.73-20.73A20.76,20.76,0,0,0,131,227.15ZM36.49,108.62H137a4,4,0,0,0,4-4V48.81a4,4,0,0,0-4-4H36.49a4,4,0,0,0-4,4v55.81A4,4,0,0,0,36.49,108.62Z" style="fill:#242021"/></svg>