<svg xmlns="http://www.w3.org/2000/svg" viewBox="0 0 503.92 308.38"><title>caravan24_icon_alkoven</title><path d="M34.47,49.74H182.21A52.76,52.76,0,0,0,224.6,28.26,69.37,69.37,0,0,1,280.36,0H397.68A56.44,56.44,0,0,1,451,37.89a28.9,28.9,0,0,1-27.3,38.38H337.39v5h75.74a48.85,48.85,0,0,1,39.2,19.82L485.4,146c6.21,8.45,19.13,25.24,18.5,39v86.11a8.29,8.29,0,0,1-8.29,8.29H464.94a37.29,37.29,0,0,1-72.73,0H215.42A37.27,37.27,0,0,1,150,294.48a37.26,37.26,0,0,1-65.37-15.12H23.73A23.76,23.76,0,0,1,0,255.63V84.21A34.5,34.5,0,0,1,34.47,49.74ZM428.58,291.8a20.73,20.73,0,1,0-20.73-20.73A20.76,20.76,0,0,0,428.58,291.8ZM353.33,171.7h97.06L420,129.44a15.34,15.34,0,0,0-12.32-6.24H353.33a4,4,0,0,0-4,4v40.5A4,4,0,0,0,353.33,171.7ZM282.68,42.28H407V34H282.68ZM219.9,171.35h47.18a4,4,0,0,0,4-4V127.79a4,4,0,0,0-4-4H219.9a4,4,0,0,0-4,4v39.56A4,4,0,0,0,219.9,171.35ZM179.06,291.8a20.73,20.73,0,1,0-20.73-20.73A20.76,20.76,0,0,0,179.06,291.8Zm-58,0a20.73,20.73,0,1,0-20.72-20.73A20.76,20.76,0,0,0,121,291.8ZM99,171.35h98.38a4,4,0,0,0,4-4V127.79a4,4,0,0,0-4-4H99a4,4,0,0,0-4,4v39.56A4,4,0,0,0,99,171.35Z" style="fill:#242021"/></svg>