<svg xmlns="http://www.w3.org/2000/svg" viewBox="0 0 504.01 353.5"><title>caravan24_icon_kastenwagen</title><path d="M8.29,103.15H23.21L276.15,27.24,365.73.35a8.29,8.29,0,1,1,4.76,15.88L286.82,41.34l0,61.81h51.44a8.29,8.29,0,0,1,8.29,8.29v19.92h22.22c29.06,0,51.69,18.07,63.83,44.47l13.32,23c22.58,2.7,58.13,29,58.13,52.27V316.2a8.29,8.29,0,0,1-8.29,8.29H474.06a37.3,37.3,0,0,1-72.73,0H161.54a37.3,37.3,0,0,1-72.73,0H30.94A31,31,0,0,1,0,293.55V111.44A8.29,8.29,0,0,1,8.29,103.15ZM437.7,336.92A20.73,20.73,0,1,0,417,316.2,20.75,20.75,0,0,0,437.7,336.92ZM364.15,199.75h48.38L404,181.15A41.51,41.51,0,0,0,366.28,157h-3.13a3,3,0,0,0-3,3v35.76A4,4,0,0,0,364.15,199.75ZM245.38,307.91h60.51V194.75a30.26,30.26,0,0,0-60.51,0Zm-120.21,29a20.73,20.73,0,1,0-20.72-20.72A20.76,20.76,0,0,0,125.17,336.92ZM48.76,213.4H199.93a4,4,0,0,0,4-4V163.52a4,4,0,0,0-4-4H48.76a4,4,0,0,0-4,4V209.4A4,4,0,0,0,48.76,213.4Z" style="fill:#242021"/></svg>