<svg xmlns="http://www.w3.org/2000/svg" viewBox="0 0 495.07 267.18"><title>caravan24_icon_wohnwagen</title><path d="M38.69,20.15h88.48V11.49A11.5,11.5,0,0,1,138.66,0h80.18a11.49,11.49,0,0,1,11.49,11.5v8.65h141A38.74,38.74,0,0,1,410,58.84l23.68,163.35h52.93a8.37,8.37,0,0,1,8.44,7.64,8.18,8.18,0,0,1-8.16,8.72H452.53v20.17a8.35,8.35,0,0,1-7.63,8.44,8.18,8.18,0,0,1-8.73-8.16V238.55H290.46a36.8,36.8,0,0,1-71.76,0H8.18A8.18,8.18,0,0,1,0,230.37V58.84A38.69,38.69,0,0,1,38.69,20.15ZM371.29,156V102.68a4,4,0,0,0-4-4H271.41a4,4,0,0,0-4,4V156a4,4,0,0,0,4,4h95.88A4,4,0,0,0,371.29,156ZM254.58,250.82a20.45,20.45,0,1,0-20.45-20.45A20.48,20.48,0,0,0,254.58,250.82ZM191.14,160H245.3a4,4,0,0,0,4-4V102.68a4,4,0,0,0-4-4H191.14a4,4,0,0,0-4,4V156A4,4,0,0,0,191.14,160ZM46.81,222.14h76.07v-121A4.09,4.09,0,0,0,118.79,97H50.9a4.09,4.09,0,0,0-4.09,4.09Z" style="fill:#242021"/></svg>