<svg xmlns="http://www.w3.org/2000/svg" width="32" height="128" viewBox="0 0 32 128"><path d="M2.19,9.37h9.38A3.34,3.34,0,0,0,14.26,8,4.42,4.42,0,0,1,17.8,6.21h7.45a3.58,3.58,0,0,1,3.39,2.4A1.84,1.84,0,0,1,27.51,11a1.8,1.8,0,0,1-.6.1H21.42v.32h4.81a3.08,3.08,0,0,1,2.49,1.26l2.1,2.85A4.72,4.72,0,0,1,32,18v5.46a.53.53,0,0,1-.53.53H29.52a2.36,2.36,0,0,1-4.61,0H13.68a2.37,2.37,0,0,1-2.83,1.79,2.35,2.35,0,0,1-1.32-.83,2.37,2.37,0,0,1-4.16-1H1.51A1.52,1.52,0,0,1,0,22.44V11.56A2.19,2.19,0,0,1,2.19,9.37Zm25,15.37a1.32,1.32,0,1,0-1.32-1.32A1.32,1.32,0,0,0,27.22,24.74Zm-4.78-7.63H28.6l-1.93-2.68a1,1,0,0,0-.78-.4H22.44a.26.26,0,0,0-.26.26v2.57A.26.26,0,0,0,22.44,17.11ZM18,8.89h7.9V8.37H18Zm-4,8.2h3a.25.25,0,0,0,.25-.25V14.32a.25.25,0,0,0-.25-.25H14a.25.25,0,0,0-.25.25v2.52A.25.25,0,0,0,14,17.09Zm-2.59,7.65a1.32,1.32,0,1,0-1.32-1.32A1.32,1.32,0,0,0,11.37,24.74Zm-3.68,0a1.32,1.32,0,1,0-1.32-1.32h0a1.32,1.32,0,0,0,1.31,1.32Zm-1.4-7.65h6.24a.26.26,0,0,0,.26-.25V14.32a.26.26,0,0,0-.26-.25H6.29a.26.26,0,0,0-.26.25v2.52A.26.26,0,0,0,6.29,17.09Z" style="fill:#242021"/><path d="M0,42.42v-.24a2,2,0,0,1,2-1.92h21.2a2.17,2.17,0,0,1,2.17,2.17h0a.19.19,0,0,1-.19.19h-.53l1.92,1.87a4.33,4.33,0,0,0,1.77,1.14A5.44,5.44,0,0,1,32,50.78v2.59a.52.52,0,0,1-.53.52H28.73a2.37,2.37,0,0,1-4.62,0H10.62a2.36,2.36,0,0,1-4.61,0H2a2,2,0,0,1-2-2V42.42ZM26.42,54.68a1.32,1.32,0,1,0-1.31-1.31h0A1.31,1.31,0,0,0,26.42,54.68ZM20,47.11H25.9a16.2,16.2,0,0,1-1.2-1.28l-1.46-1.61a2.65,2.65,0,0,0-2-1.11H20a.26.26,0,0,0-.25.26v3.49A.25.25,0,0,0,20,47.11Zm-9.14-2h3.93a.26.26,0,0,0,.26-.25V43.31a.26.26,0,0,0-.26-.25H10.83a.25.25,0,0,0-.25.25v1.58a.26.26,0,0,0,.25.26ZM8.32,54.68A1.32,1.32,0,1,0,7,53.37H7A1.32,1.32,0,0,0,8.32,54.68Zm-6-7.52H8.7A.25.25,0,0,0,9,46.91V43.36a.25.25,0,0,0-.25-.25H2.32a.26.26,0,0,0-.26.25v3.55A.26.26,0,0,0,2.32,47.16Z" style="fill:#242021"/><path d="M.53,75.33h.94l16.06-4.82,5.69-1.71a.53.53,0,0,1,.66.34.52.52,0,0,1-.34.66h0L18.21,71.4v3.93h3.27a.52.52,0,0,1,.52.52h0v1.27h1.41a4.47,4.47,0,0,1,4.06,2.82l.84,1.46c1.44.17,3.69,1.84,3.69,3.32v4.13a.52.52,0,0,1-.52.53H30.1a2.37,2.37,0,0,1-4.62,0H10.26a2.37,2.37,0,0,1-4.62,0H2a2,2,0,0,1-2-2V75.85a.52.52,0,0,1,.53-.52ZM27.79,90.17a1.32,1.32,0,1,0-1.31-1.32h0A1.31,1.31,0,0,0,27.79,90.17Zm-4.67-8.71h3.07l-.54-1.18a2.63,2.63,0,0,0-2.39-1.53h-.2a.18.18,0,0,0-.19.19v2.27A.25.25,0,0,0,23.12,81.46Zm-7.54,6.87h3.84V81.14a1.92,1.92,0,0,0-3.84,0ZM8,90.17a1.32,1.32,0,1,0-1.32-1.32h0A1.32,1.32,0,0,0,8,90.17ZM3.1,82.33h9.59a.26.26,0,0,0,.26-.26V79.16a.26.26,0,0,0-.26-.25H3.1a.26.26,0,0,0-.26.25v2.91A.26.26,0,0,0,3.1,82.33Z" style="fill:#242021"/><path d="M2.5,104.67H8.22v-.56a.74.74,0,0,1,.74-.74h5.19a.74.74,0,0,1,.74.74h0v.56H24a2.5,2.5,0,0,1,2.5,2.5L28,117.73h3.42a.54.54,0,0,1,.55.49.53.53,0,0,1-.49.56H29.25v1.31a.53.53,0,0,1-1.06,0v-1.36H18.77a2.37,2.37,0,0,1-4.63,0H.53a.52.52,0,0,1-.53-.52H0V107.17A2.5,2.5,0,0,1,2.5,104.67ZM24,113.45V110a.26.26,0,0,0-.26-.26h-6.2a.26.26,0,0,0-.26.26v3.45a.26.26,0,0,0,.26.26h6.2A.26.26,0,0,0,24,113.45Zm-7.54,6.13a1.33,1.33,0,0,0,0-2.65,1.34,1.34,0,0,0-1.33,1.33h0A1.33,1.33,0,0,0,16.46,119.58Zm-4.11-5.87h3.51a.26.26,0,0,0,.25-.26V110a.26.26,0,0,0-.25-.26H12.35a.26.26,0,0,0-.25.26v3.45A.26.26,0,0,0,12.35,113.71Zm-9.32,4H7.94V109.9a.27.27,0,0,0-.26-.27H3.29a.26.26,0,0,0-.26.27Z" style="fill:#242021"/></svg>